<mxfile host="app.diagrams.net" modified="2023-04-28T08:07:25.999Z" agent="Mozilla/5.0 (Windows NT 10.0; Win64; x64) AppleWebKit/537.36 (KHTML, like Gecko) Chrome/112.0.0.0 Safari/537.36 Edg/112.0.1722.39" etag="iw53STkry0ovo2LXFfFY" version="21.1.2" type="github">
  <diagram name="Page-1" id="6oLBQF8hsxlXaG-0VVH9">
    <mxGraphModel dx="880" dy="484" grid="1" gridSize="10" guides="1" tooltips="1" connect="1" arrows="1" fold="1" page="1" pageScale="1" pageWidth="827" pageHeight="1169" math="0" shadow="0">
      <root>
        <mxCell id="0" />
        <mxCell id="1" parent="0" />
        <mxCell id="cJ3HwHlVq2hLsZO6YUra-1" value="START" style="strokeWidth=2;html=1;shape=mxgraph.flowchart.terminator;whiteSpace=wrap;fillColor=#f8cecc;strokeColor=#b85450;fontStyle=1" vertex="1" parent="1">
          <mxGeometry x="40" y="115" width="80" height="50" as="geometry" />
        </mxCell>
        <mxCell id="cJ3HwHlVq2hLsZO6YUra-2" value="&amp;nbsp; &amp;nbsp; &amp;nbsp; &amp;nbsp;Print prompt (ex:&quot;$ &quot;)" style="shape=parallelogram;perimeter=parallelogramPerimeter;whiteSpace=wrap;html=1;fixedSize=1;fillColor=#dae8fc;strokeColor=#6c8ebf;" vertex="1" parent="1">
          <mxGeometry x="330" y="120" width="120" height="40" as="geometry" />
        </mxCell>
        <mxCell id="cJ3HwHlVq2hLsZO6YUra-3" value="" style="endArrow=classic;html=1;rounded=0;" edge="1" parent="1">
          <mxGeometry width="50" height="50" relative="1" as="geometry">
            <mxPoint x="120" y="140" as="sourcePoint" />
            <mxPoint x="170" y="140.5" as="targetPoint" />
            <Array as="points">
              <mxPoint x="120" y="140.5" />
            </Array>
          </mxGeometry>
        </mxCell>
        <mxCell id="cJ3HwHlVq2hLsZO6YUra-4" value="Run shell program" style="rounded=0;whiteSpace=wrap;html=1;fillColor=#f5f5f5;fontColor=#333333;strokeColor=#666666;" vertex="1" parent="1">
          <mxGeometry x="170" y="120" width="110" height="40" as="geometry" />
        </mxCell>
        <mxCell id="cJ3HwHlVq2hLsZO6YUra-5" value="" style="endArrow=classic;html=1;rounded=0;exitX=1;exitY=0.5;exitDx=0;exitDy=0;" edge="1" parent="1" source="cJ3HwHlVq2hLsZO6YUra-4">
          <mxGeometry width="50" height="50" relative="1" as="geometry">
            <mxPoint x="170" y="30" as="sourcePoint" />
            <mxPoint x="340" y="140" as="targetPoint" />
            <Array as="points" />
          </mxGeometry>
        </mxCell>
        <mxCell id="cJ3HwHlVq2hLsZO6YUra-10" value="" style="endArrow=classic;html=1;rounded=0;exitX=1;exitY=0.5;exitDx=0;exitDy=0;" edge="1" parent="1" source="cJ3HwHlVq2hLsZO6YUra-2">
          <mxGeometry width="50" height="50" relative="1" as="geometry">
            <mxPoint x="520" y="150" as="sourcePoint" />
            <mxPoint x="500" y="140" as="targetPoint" />
            <Array as="points" />
          </mxGeometry>
        </mxCell>
        <mxCell id="cJ3HwHlVq2hLsZO6YUra-11" value="Is a valid command?" style="rhombus;whiteSpace=wrap;html=1;fillColor=#fff2cc;strokeColor=#d6b656;" vertex="1" parent="1">
          <mxGeometry x="670" y="95" width="90" height="90" as="geometry" />
        </mxCell>
        <mxCell id="cJ3HwHlVq2hLsZO6YUra-15" value="return" style="html=1;verticalAlign=bottom;endArrow=open;dashed=1;endSize=8;edgeStyle=elbowEdgeStyle;elbow=vertical;curved=0;rounded=0;exitX=0;exitY=0.75;exitDx=0;exitDy=0;entryX=0.75;entryY=0;entryDx=0;entryDy=0;fontStyle=1" edge="1" parent="1" target="cJ3HwHlVq2hLsZO6YUra-2">
          <mxGeometry relative="1" as="geometry">
            <mxPoint x="670" y="42.500000000000114" as="sourcePoint" />
            <mxPoint x="440" y="110" as="targetPoint" />
            <Array as="points">
              <mxPoint x="530" y="40" />
            </Array>
          </mxGeometry>
        </mxCell>
        <mxCell id="cJ3HwHlVq2hLsZO6YUra-35" value="True" style="text;strokeColor=none;fillColor=none;html=1;fontSize=12;fontStyle=1;verticalAlign=middle;align=center;rotation=270;" vertex="1" parent="1">
          <mxGeometry x="680" y="200" width="50" height="30" as="geometry" />
        </mxCell>
        <mxCell id="cJ3HwHlVq2hLsZO6YUra-38" value="Parse input line (split into command and arguments)" style="rounded=0;whiteSpace=wrap;html=1;fillColor=#f5f5f5;fontColor=#333333;strokeColor=#666666;" vertex="1" parent="1">
          <mxGeometry x="650" y="260" width="120" height="50" as="geometry" />
        </mxCell>
        <mxCell id="cJ3HwHlVq2hLsZO6YUra-39" value="" style="endArrow=classic;html=1;rounded=0;" edge="1" parent="1">
          <mxGeometry width="50" height="50" relative="1" as="geometry">
            <mxPoint x="714.5" y="310" as="sourcePoint" />
            <mxPoint x="714.5" y="350" as="targetPoint" />
          </mxGeometry>
        </mxCell>
        <mxCell id="cJ3HwHlVq2hLsZO6YUra-41" value="Check if command &lt;br&gt;is an internal command &lt;br&gt;(ex: cd, exit)" style="strokeWidth=2;html=1;shape=mxgraph.flowchart.decision;whiteSpace=wrap;fillColor=#fff2cc;strokeColor=#d6b656;" vertex="1" parent="1">
          <mxGeometry x="640" y="350" width="150" height="120" as="geometry" />
        </mxCell>
        <mxCell id="cJ3HwHlVq2hLsZO6YUra-43" value="" style="endArrow=classic;html=1;rounded=0;entryX=1;entryY=0.5;entryDx=0;entryDy=0;" edge="1" parent="1" target="cJ3HwHlVq2hLsZO6YUra-45">
          <mxGeometry width="50" height="50" relative="1" as="geometry">
            <mxPoint x="640" y="409.5" as="sourcePoint" />
            <mxPoint x="580" y="409.5" as="targetPoint" />
          </mxGeometry>
        </mxCell>
        <mxCell id="cJ3HwHlVq2hLsZO6YUra-44" value="" style="endArrow=classic;html=1;rounded=0;" edge="1" parent="1">
          <mxGeometry width="50" height="50" relative="1" as="geometry">
            <mxPoint x="714.5" y="470" as="sourcePoint" />
            <mxPoint x="714.5" y="530" as="targetPoint" />
          </mxGeometry>
        </mxCell>
        <mxCell id="cJ3HwHlVq2hLsZO6YUra-45" value="If command is &quot;cd&quot;, change current directory" style="rounded=0;whiteSpace=wrap;html=1;fillColor=#d5e8d4;strokeColor=#82b366;" vertex="1" parent="1">
          <mxGeometry x="340" y="380" width="120" height="60" as="geometry" />
        </mxCell>
        <mxCell id="cJ3HwHlVq2hLsZO6YUra-46" value="Read input line from user" style="rounded=0;whiteSpace=wrap;html=1;fillColor=#d5e8d4;strokeColor=#82b366;" vertex="1" parent="1">
          <mxGeometry x="500" y="120" width="120" height="40" as="geometry" />
        </mxCell>
        <mxCell id="cJ3HwHlVq2hLsZO6YUra-48" value="" style="endArrow=classic;html=1;rounded=0;exitX=1;exitY=0.5;exitDx=0;exitDy=0;" edge="1" parent="1" source="cJ3HwHlVq2hLsZO6YUra-46" target="cJ3HwHlVq2hLsZO6YUra-11">
          <mxGeometry width="50" height="50" relative="1" as="geometry">
            <mxPoint x="620" y="145" as="sourcePoint" />
            <mxPoint x="670" y="95" as="targetPoint" />
          </mxGeometry>
        </mxCell>
        <mxCell id="cJ3HwHlVq2hLsZO6YUra-49" value="" style="endArrow=classic;html=1;rounded=0;exitX=0.5;exitY=0;exitDx=0;exitDy=0;" edge="1" parent="1" source="cJ3HwHlVq2hLsZO6YUra-11">
          <mxGeometry width="50" height="50" relative="1" as="geometry">
            <mxPoint x="715" y="90" as="sourcePoint" />
            <mxPoint x="715" y="50.000000000000114" as="targetPoint" />
          </mxGeometry>
        </mxCell>
        <mxCell id="cJ3HwHlVq2hLsZO6YUra-51" value="" style="endArrow=classic;html=1;rounded=0;exitX=0.5;exitY=1;exitDx=0;exitDy=0;" edge="1" parent="1" source="cJ3HwHlVq2hLsZO6YUra-11">
          <mxGeometry width="50" height="50" relative="1" as="geometry">
            <mxPoint x="710" y="185" as="sourcePoint" />
            <mxPoint x="715" y="260" as="targetPoint" />
            <Array as="points" />
          </mxGeometry>
        </mxCell>
        <mxCell id="cJ3HwHlVq2hLsZO6YUra-52" value="False" style="text;strokeColor=none;fillColor=none;html=1;fontSize=12;fontStyle=1;verticalAlign=middle;align=center;rotation=270;" vertex="1" parent="1">
          <mxGeometry x="680" y="70" width="50" height="15" as="geometry" />
        </mxCell>
        <mxCell id="cJ3HwHlVq2hLsZO6YUra-55" value="False" style="text;strokeColor=none;fillColor=none;html=1;fontSize=12;fontStyle=1;verticalAlign=middle;align=center;rotation=270;" vertex="1" parent="1">
          <mxGeometry x="675" y="490" width="60" height="20" as="geometry" />
        </mxCell>
        <mxCell id="cJ3HwHlVq2hLsZO6YUra-58" value="return" style="html=1;verticalAlign=bottom;endArrow=open;dashed=1;endSize=8;edgeStyle=elbowEdgeStyle;elbow=vertical;curved=0;rounded=0;exitX=0.428;exitY=-0.043;exitDx=0;exitDy=0;exitPerimeter=0;fontStyle=1" edge="1" parent="1" source="cJ3HwHlVq2hLsZO6YUra-45" target="cJ3HwHlVq2hLsZO6YUra-2">
          <mxGeometry relative="1" as="geometry">
            <mxPoint x="450" y="320" as="sourcePoint" />
            <mxPoint x="370" y="320" as="targetPoint" />
            <Array as="points" />
          </mxGeometry>
        </mxCell>
        <mxCell id="cJ3HwHlVq2hLsZO6YUra-59" value="" style="endArrow=classic;html=1;rounded=0;" edge="1" parent="1" target="cJ3HwHlVq2hLsZO6YUra-60">
          <mxGeometry width="50" height="50" relative="1" as="geometry">
            <mxPoint x="340" y="410" as="sourcePoint" />
            <mxPoint x="190" y="410" as="targetPoint" />
          </mxGeometry>
        </mxCell>
        <mxCell id="cJ3HwHlVq2hLsZO6YUra-60" value="If command is &quot;exit&quot;, exit shell program" style="rounded=0;whiteSpace=wrap;html=1;fillColor=#d5e8d4;strokeColor=#82b366;" vertex="1" parent="1">
          <mxGeometry x="120" y="380" width="120" height="60" as="geometry" />
        </mxCell>
        <mxCell id="cJ3HwHlVq2hLsZO6YUra-61" value="return" style="html=1;verticalAlign=bottom;endArrow=open;dashed=1;endSize=8;edgeStyle=elbowEdgeStyle;elbow=vertical;curved=0;rounded=0;entryX=0.5;entryY=1;entryDx=0;entryDy=0;entryPerimeter=0;fontStyle=1" edge="1" parent="1" target="cJ3HwHlVq2hLsZO6YUra-1">
          <mxGeometry relative="1" as="geometry">
            <mxPoint x="120" y="409.5" as="sourcePoint" />
            <mxPoint x="40" y="409.5" as="targetPoint" />
            <Array as="points">
              <mxPoint x="90" y="410" />
            </Array>
          </mxGeometry>
        </mxCell>
        <mxCell id="cJ3HwHlVq2hLsZO6YUra-62" value="True" style="text;strokeColor=none;fillColor=none;html=1;fontSize=12;fontStyle=1;verticalAlign=middle;align=center;" vertex="1" parent="1">
          <mxGeometry x="520" y="390" width="50" height="20" as="geometry" />
        </mxCell>
        <mxCell id="cJ3HwHlVq2hLsZO6YUra-63" value="Check if command&lt;br&gt;&amp;nbsp;is an external &lt;br&gt;executable&amp;nbsp;" style="rhombus;whiteSpace=wrap;html=1;fillColor=#fff2cc;strokeColor=#d6b656;" vertex="1" parent="1">
          <mxGeometry x="640" y="530" width="150" height="125.5" as="geometry" />
        </mxCell>
        <mxCell id="cJ3HwHlVq2hLsZO6YUra-64" value="" style="endArrow=classic;html=1;rounded=0;" edge="1" parent="1">
          <mxGeometry width="50" height="50" relative="1" as="geometry">
            <mxPoint x="640" y="592.25" as="sourcePoint" />
            <mxPoint x="480" y="592" as="targetPoint" />
          </mxGeometry>
        </mxCell>
        <mxCell id="cJ3HwHlVq2hLsZO6YUra-65" value="Print &#39;Command not found" style="rounded=0;whiteSpace=wrap;html=1;fillColor=#f8cecc;strokeColor=#b85450;fontStyle=1" vertex="1" parent="1">
          <mxGeometry x="320" y="569.13" width="160" height="40.87" as="geometry" />
        </mxCell>
        <mxCell id="cJ3HwHlVq2hLsZO6YUra-66" value="False" style="text;strokeColor=none;fillColor=none;html=1;fontSize=12;fontStyle=1;verticalAlign=middle;align=center;" vertex="1" parent="1">
          <mxGeometry x="540" y="569.13" width="40" height="20" as="geometry" />
        </mxCell>
        <mxCell id="cJ3HwHlVq2hLsZO6YUra-67" value="return" style="html=1;verticalAlign=bottom;endArrow=open;dashed=1;endSize=8;edgeStyle=elbowEdgeStyle;elbow=vertical;curved=0;rounded=0;exitX=0;exitY=0.5;exitDx=0;exitDy=0;fontStyle=1" edge="1" parent="1" source="cJ3HwHlVq2hLsZO6YUra-65">
          <mxGeometry x="-0.523" relative="1" as="geometry">
            <mxPoint x="300" y="589.13" as="sourcePoint" />
            <mxPoint x="30" y="80" as="targetPoint" />
            <Array as="points">
              <mxPoint x="150" y="588.88" />
            </Array>
            <mxPoint x="-1" as="offset" />
          </mxGeometry>
        </mxCell>
        <mxCell id="cJ3HwHlVq2hLsZO6YUra-68" value="return" style="html=1;verticalAlign=bottom;endArrow=open;dashed=1;endSize=8;edgeStyle=elbowEdgeStyle;elbow=vertical;curved=0;rounded=0;entryX=0.308;entryY=-0.105;entryDx=0;entryDy=0;entryPerimeter=0;fontStyle=1" edge="1" parent="1" target="cJ3HwHlVq2hLsZO6YUra-2">
          <mxGeometry relative="1" as="geometry">
            <mxPoint x="30" y="80" as="sourcePoint" />
            <mxPoint x="30" y="77" as="targetPoint" />
            <Array as="points">
              <mxPoint x="40" y="70" />
              <mxPoint x="210" y="80" />
            </Array>
          </mxGeometry>
        </mxCell>
        <mxCell id="cJ3HwHlVq2hLsZO6YUra-69" value="" style="endArrow=classic;html=1;rounded=0;" edge="1" parent="1">
          <mxGeometry width="50" height="50" relative="1" as="geometry">
            <mxPoint x="714.5" y="655.5" as="sourcePoint" />
            <mxPoint x="714.5" y="720" as="targetPoint" />
          </mxGeometry>
        </mxCell>
        <mxCell id="cJ3HwHlVq2hLsZO6YUra-78" value="Error message" style="rounded=0;whiteSpace=wrap;html=1;fillColor=#f8cecc;strokeColor=#b85450;fontStyle=1" vertex="1" parent="1">
          <mxGeometry x="660" y="10" width="110" height="40.87" as="geometry" />
        </mxCell>
        <mxCell id="cJ3HwHlVq2hLsZO6YUra-82" value="True" style="text;strokeColor=none;fillColor=none;html=1;fontSize=12;fontStyle=1;verticalAlign=middle;align=center;rotation=270;" vertex="1" parent="1">
          <mxGeometry x="675" y="680" width="60" height="20" as="geometry" />
        </mxCell>
        <mxCell id="cJ3HwHlVq2hLsZO6YUra-84" value="Create child process &lt;br&gt;using fork()" style="shape=parallelogram;perimeter=parallelogramPerimeter;whiteSpace=wrap;html=1;fixedSize=1;fillColor=#dae8fc;strokeColor=#6c8ebf;" vertex="1" parent="1">
          <mxGeometry x="635" y="720" width="155" height="60" as="geometry" />
        </mxCell>
        <mxCell id="cJ3HwHlVq2hLsZO6YUra-149" value="" style="endArrow=classic;html=1;rounded=0;exitX=0.5;exitY=1;exitDx=0;exitDy=0;" edge="1" parent="1">
          <mxGeometry width="50" height="50" relative="1" as="geometry">
            <mxPoint x="715" y="780" as="sourcePoint" />
            <mxPoint x="510" y="870" as="targetPoint" />
            <Array as="points">
              <mxPoint x="715" y="830" />
              <mxPoint x="510" y="830" />
            </Array>
          </mxGeometry>
        </mxCell>
        <mxCell id="cJ3HwHlVq2hLsZO6YUra-162" value="Child Process&lt;br&gt;PID" style="shape=parallelogram;perimeter=parallelogramPerimeter;whiteSpace=wrap;html=1;fixedSize=1;fillColor=#dae8fc;strokeColor=#6c8ebf;" vertex="1" parent="1">
          <mxGeometry x="630" y="900" width="120" height="60" as="geometry" />
        </mxCell>
        <mxCell id="cJ3HwHlVq2hLsZO6YUra-164" value="" style="shape=curlyBracket;whiteSpace=wrap;html=1;rounded=1;flipH=1;labelPosition=right;verticalLabelPosition=middle;align=left;verticalAlign=middle;direction=south;" vertex="1" parent="1">
          <mxGeometry x="330" y="860" width="360" height="40" as="geometry" />
        </mxCell>
        <mxCell id="cJ3HwHlVq2hLsZO6YUra-167" value="Father Process&lt;br&gt;PPID" style="shape=parallelogram;perimeter=parallelogramPerimeter;whiteSpace=wrap;html=1;fixedSize=1;fillColor=#dae8fc;strokeColor=#6c8ebf;" vertex="1" parent="1">
          <mxGeometry x="270" y="900" width="120" height="60" as="geometry" />
        </mxCell>
        <mxCell id="cJ3HwHlVq2hLsZO6YUra-169" value="" style="endArrow=classic;html=1;rounded=0;" edge="1" parent="1">
          <mxGeometry width="50" height="50" relative="1" as="geometry">
            <mxPoint x="320" y="960" as="sourcePoint" />
            <mxPoint x="319.5" y="1000" as="targetPoint" />
          </mxGeometry>
        </mxCell>
        <mxCell id="cJ3HwHlVq2hLsZO6YUra-170" value="wait for child process to finish using wait()" style="rounded=0;whiteSpace=wrap;html=1;fillColor=#f5f5f5;fontColor=#333333;strokeColor=#666666;" vertex="1" parent="1">
          <mxGeometry x="270" y="1000" width="100" height="50" as="geometry" />
        </mxCell>
        <mxCell id="cJ3HwHlVq2hLsZO6YUra-171" value="" style="endArrow=classic;html=1;rounded=0;" edge="1" parent="1">
          <mxGeometry width="50" height="50" relative="1" as="geometry">
            <mxPoint x="680" y="960" as="sourcePoint" />
            <mxPoint x="680" y="1000" as="targetPoint" />
            <Array as="points">
              <mxPoint x="680" y="980" />
            </Array>
          </mxGeometry>
        </mxCell>
        <mxCell id="cJ3HwHlVq2hLsZO6YUra-172" value="execute command using exec()" style="rounded=0;whiteSpace=wrap;html=1;fillColor=#f5f5f5;fontColor=#333333;strokeColor=#666666;" vertex="1" parent="1">
          <mxGeometry x="630" y="1000" width="105" height="50" as="geometry" />
        </mxCell>
        <mxCell id="cJ3HwHlVq2hLsZO6YUra-173" value="" style="shape=curlyBracket;whiteSpace=wrap;html=1;rounded=1;flipH=1;labelPosition=right;verticalLabelPosition=middle;align=left;verticalAlign=middle;size=0.5;direction=north;" vertex="1" parent="1">
          <mxGeometry x="335" y="1050" width="350" height="60" as="geometry" />
        </mxCell>
        <mxCell id="cJ3HwHlVq2hLsZO6YUra-174" value="Return to Start" style="rounded=0;whiteSpace=wrap;html=1;fillColor=#f8cecc;strokeColor=#b85450;" vertex="1" parent="1">
          <mxGeometry x="460" y="1100" width="100" height="36" as="geometry" />
        </mxCell>
        <mxCell id="cJ3HwHlVq2hLsZO6YUra-189" value="INITIALIZATION AND READING STAGE&amp;nbsp;" style="text;html=1;strokeColor=default;fillColor=#FFCCCC;align=center;verticalAlign=middle;whiteSpace=wrap;rounded=0;rotation=270;gradientColor=none;fontStyle=1" vertex="1" parent="1">
          <mxGeometry x="-115" y="130" width="250" height="20" as="geometry" />
        </mxCell>
        <mxCell id="cJ3HwHlVq2hLsZO6YUra-191" value="PARSING STAGE" style="text;html=1;strokeColor=default;fillColor=#99FF99;align=center;verticalAlign=middle;whiteSpace=wrap;rounded=0;rotation=270;fontStyle=1" vertex="1" parent="1">
          <mxGeometry x="-183.44" y="455.32" width="386.88" height="20" as="geometry" />
        </mxCell>
        <mxCell id="cJ3HwHlVq2hLsZO6YUra-192" value="EXECUTION STAGE" style="text;html=1;strokeColor=default;fillColor=#99FFFF;align=center;verticalAlign=middle;whiteSpace=wrap;rounded=0;rotation=270;fontStyle=1" vertex="1" parent="1">
          <mxGeometry x="-235" y="905" width="490" height="18.5" as="geometry" />
        </mxCell>
      </root>
    </mxGraphModel>
  </diagram>
</mxfile>
